<svg width="48" height="20" viewBox="0 0 48 20" fill="none" xmlns="http://www.w3.org/2000/svg">
                            <rect opacity="0.01" width="20" height="20" fill="#FA3E3E" />
                            <path fill-rule="evenodd" clip-rule="evenodd" d="M17.8724 7.69885L17.8658 7.464C15.8063 5.62121 13.1608 4.605 10.3808 4.605C7.59289 4.605 4.9405 5.62699 2.8788 7.4792L2.87244 7.71383L4.09167 8.93517L4.31229 8.94228C5.98996 7.46527 8.13184 6.65245 10.3808 6.65245C12.6221 6.65245 14.7573 7.45974 16.4327 8.92772L16.653 8.92035L17.8724 7.69885ZM15.1935 10.1344L15.2036 10.3723L13.9806 11.5974L13.7659 11.6094C12.8051 10.8415 11.6198 10.4241 10.3808 10.4241C9.13426 10.4241 7.94216 10.8466 6.97862 11.6231L6.76338 11.6115L5.54081 10.3868L5.55059 10.1492C6.89968 9.00391 8.59924 8.37663 10.3808 8.37663C12.1544 8.37663 13.8469 8.99832 15.1935 10.1344ZM10.4791 15.105H10.2509L8.22215 13.0728C8.15139 13.0019 8.16143 12.8843 8.24318 12.8264C8.86734 12.385 9.60928 12.1483 10.3808 12.1483C11.1442 12.1483 11.8787 12.38 12.4989 12.8128C12.5814 12.8703 12.5919 12.9885 12.5208 13.0597L10.4791 15.105Z" fill="white" />
                            <rect opacity="0.01" x="21" width="27" height="20" fill="#FA3E3E" />
                            <path fill-rule="evenodd" clip-rule="evenodd" d="M42.5 4.5H25.5C24.1193 4.5 23 5.61929 23 7V13.5C23 14.8807 24.1193 16 25.5 16H42.5C43.8807 16 45 14.8807 45 13.5V7C45 5.61929 43.8807 4.5 42.5 4.5ZM24 7C24 6.17157 24.6716 5.5 25.5 5.5H42.5C43.3284 5.5 44 6.17157 44 7V13.5C44 14.3284 43.3284 15 42.5 15H25.5C24.6716 15 24 14.3284 24 13.5V7ZM47.25 10C47.25 9.07465 46.7473 8.26672 46 7.83446V12.1655C46.7473 11.7333 47.25 10.9254 47.25 10Z" fill="white" fill-opacity="0.38" />
                            <path fill-rule="evenodd" clip-rule="evenodd" d="M26 6.5H42C42.5523 6.5 43 6.94772 43 7.5V13C43 13.5523 42.5523 14 42 14H26C25.4477 14 25 13.5523 25 13V7.5C25 6.94772 25.4477 6.5 26 6.5Z" fill="white" />
                        </svg>