 <svg
                className='ml-2 group-hover:scale-125 group-hover:rotate-15' width="50" height="50" viewBox="0 0 80 80" fill="none"
                xmlns="http://www.w3.org/2000/svg">
                <path d="M12.093 2.5C9.5488 2.5 7.10877 3.51069 5.30973 5.30973C3.51069 7.10877 2.5 9.5488 2.5 12.093V31.25H40.3488V12.965L40.3232 12.9652C39.5939 12.9724 38.8745 12.7965 38.2308 12.4537C37.5871 12.1109 37.0398 11.612 36.6387 11.0029L33.8041 6.80344C32.9314 5.48314 31.7456 4.39917 30.3522 3.64827C28.9542 2.89482 27.3905 2.50026 25.8023 2.5H12.093Z" fill="#2DD4BF" />
                <rect x="2.5" y="12.5" width="75" height="65" rx="8.75" fill="#2DD4BF" />
                <path d="M5 22.5C5 18.3579 8.35786 15 12.5 15H67.5C71.6421 15 75 18.3579 75 22.5V70C75 74.1421 71.6421 77.5 67.5 77.5H12.5C8.35787 77.5 5 74.1421 5 70V22.5Z" fill="#5EEAD4" />
                <mask id="path-4-inside-1_854_2546" fill="white">
                    <path d="M5 22.5C5 18.3579 8.35786 15 12.5 15H67.5C71.6421 15 75 18.3579 75 22.5V70C75 74.1421 71.6421 77.5 67.5 77.5H12.5C8.35787 77.5 5 74.1421 5 70V22.5Z" />
                </mask>
                <path d="M5 15H75H5ZM75 70C75 75.5228 70.5228 80 65 80H15C9.47715 80 5 75.5228 5 70C5 72.7614 8.35786 75 12.5 75H67.5C71.6421 75 75 72.7614 75 70ZM5 77.5V15V77.5ZM75 15V77.5V15Z" fill="#14B8A6" mask="url(#path-4-inside-1_854_2546)" />
                <path d="M5 22.5C5 18.3579 8.35786 15 12.5 15H67.5C71.6421 15 75 18.3579 75 22.5V70C75 74.1421 71.6421 77.5 67.5 77.5H12.5C8.35787 77.5 5 74.1421 5 70V22.5Z" fill="url(#paint0_linear_854_2546)" />
                <mask id="path-7-inside-2_854_2546" fill="white">
                    <path d="M5 22.5C5 18.3579 8.35786 15 12.5 15H67.5C71.6421 15 75 18.3579 75 22.5V70C75 74.1421 71.6421 77.5 67.5 77.5H12.5C8.35787 77.5 5 74.1421 5 70V22.5Z" />
                </mask>
                <path d="M5 22.5C5 16.9772 9.47715 12.5 15 12.5H65C70.5228 12.5 75 16.9772 75 22.5C75 19.7386 71.6421 17.5 67.5 17.5H12.5C8.35786 17.5 5 19.7386 5 22.5ZM75 77.5H5H75ZM5 77.5V15V77.5ZM75 15V77.5V15Z" fill="#99F6E4" mask="url(#path-7-inside-2_854_2546)" />
                <defs>
                    <linearGradient id="paint0_linear_854_2546" x1="40" y1="15" x2="40" y2="77.5" gradientUnits="userSpaceOnUse">
                        <stop stop-opacity="0" />
                        <stop offset="1" stop-opacity="0.1" />
                    </linearGradient>
                </defs>
            </svg>