<svg width="62" height="62" viewBox="0 0 62 62" fill="none" xmlns="http://www.w3.org/2000/svg">
<path fill-rule="evenodd" clip-rule="evenodd" d="M15.022 3.64934L15.0219 20.641C15.0218 27.0034 18.2281 33.5544 24.2586 39.2353V10.9953L15.4368 3.76533C15.3948 3.73091 15.323 3.69231 15.2195 3.66887C15.1524 3.65364 15.0844 3.64778 15.022 3.64934ZM26.4389 41.1495L26.3899 41.1092V12.742L35.6232 20.3093V48.6764L26.4389 41.1495ZM37.7544 50.3904V22.1121C44.2429 27.9406 47.7011 34.7516 47.7011 41.3592L47.701 58.3509C47.6387 58.3525 47.5707 58.3466 47.5035 58.3314C47.4001 58.308 47.3282 58.2694 47.2862 58.2349L41.8247 53.7589L37.7544 50.3904ZM49.6653 59.4167C49.7691 59.2073 49.8323 58.9662 49.8323 58.6977V41.3592C49.8323 33.4445 45.3998 25.5662 37.6352 19.2026L37.0377 18.713C38.7962 9.52592 46.8744 2.58337 56.5741 2.58337C58.1435 2.58337 59.4157 3.85563 59.4157 5.42504V53.7334C59.4157 56.8722 56.8712 59.4167 53.7324 59.4167H49.6653ZM24.9167 42.6568C23.0204 52.2129 14.5899 59.4167 4.47684 59.4167C3.43057 59.4167 2.5824 58.5685 2.5824 57.5223V8.26671C2.5824 5.12789 5.12691 2.58337 8.26573 2.58337H13.0578C12.954 2.79286 12.8908 3.03397 12.8908 3.30253L12.8906 20.641C12.8906 28.4974 17.2581 36.318 24.9167 42.6568Z" fill="#000"/>
</svg>
