<svg width="65" height="65" viewBox="0 0 65 65" fill="none" xmlns="http://www.w3.org/2000/svg">
<g clip-path="url(#clip0_233_1110)">
<path d="M62.4952 7.0985L49.1545 0.724206C48.401 0.364231 47.5535 0.24555 46.7291 0.384586C45.9047 0.523622 45.1442 0.9135 44.5529 1.50027L0.880038 41.0157C-0.294533 42.0788 -0.293009 43.9139 0.883084 44.9752L4.45047 48.1933C4.91651 48.6138 5.51613 48.8593 6.14539 48.8871C6.77465 48.9148 7.39388 48.7233 7.89572 48.3455L60.4878 8.75217C62.2522 7.42405 64.7865 8.6728 64.7865 10.8705V10.7168C64.7865 9.96079 64.5714 9.22017 64.1661 8.58009C63.7608 7.94 63.1816 7.42645 62.4952 7.0985Z" fill="#0065A9"/>
<path d="M62.4952 57.4776L49.1545 63.8519C48.401 64.2118 47.5535 64.3305 46.7291 64.1914C45.9047 64.0524 45.1443 63.6626 44.5529 63.0759L0.880038 23.5604C-0.294533 22.4976 -0.293009 20.6623 0.883084 19.6012L4.45047 16.3828C4.91654 15.9624 5.51618 15.717 6.14544 15.6892C6.7747 15.6615 7.39391 15.8531 7.89572 16.2309L60.4878 55.824C62.2522 57.1521 64.7865 55.9033 64.7865 53.7054V53.8594C64.7864 54.6153 64.5714 55.356 64.1661 55.996C63.7607 56.6361 63.1816 57.1497 62.4952 57.4776Z" fill="#007ACC"/>
<path d="M49.1125 63.8569C48.3589 64.2167 47.5113 64.3351 46.6868 64.196C45.8624 64.0568 45.1019 63.6669 44.5105 63.0801C46.0037 64.5617 48.5573 63.5122 48.5573 61.4164V3.16754C48.5573 1.07166 46.0037 0.0222139 44.5105 1.50404C45.1019 0.917225 45.8624 0.527248 46.6868 0.388039C47.5112 0.248829 48.3589 0.367266 49.1125 0.72697L62.451 7.09245C63.1378 7.42022 63.7174 7.93378 64.123 8.57404C64.5286 9.21429 64.7438 9.9552 64.7438 10.7115V53.8729C64.7438 55.4162 63.8526 56.8232 62.451 57.492L49.1125 63.8569Z" fill="#1F9CF0"/>
</g>
<defs>
<clipPath id="clip0_233_1110">
<rect width="65" height="64" fill="white" transform="translate(0 0.327148)"/>
</clipPath>
</defs>
</svg>
